# Blender 4.4.0
# www.blender.org
o Cube
v -5.136781 8.139833 4.499947
v -5.136781 -0.974684 4.499947
v -5.136782 8.139833 -6.585092
v -5.136782 -0.974684 -6.585092
v 7.478071 8.139833 4.499946
v 7.478071 -0.974684 4.499946
v 7.478070 8.139833 -6.585093
v 7.478070 -0.974684 -6.585093
v -7.880322 8.217471 -8.995921
v 10.221610 8.217471 -8.995923
v -7.880321 8.217471 6.910777
v 10.221612 8.217471 6.910776
v -7.880322 8.217471 -8.995921
v 10.221610 8.217471 -8.995923
v -7.880321 8.217471 6.910777
v 10.221612 8.217471 6.910776
v -2.622319 10.756376 -4.375560
v 4.963607 10.756376 -4.375561
v -2.622318 10.756376 2.290415
v 4.963608 10.756376 2.290414
v -3.109695 -0.974684 4.499947
v -3.109696 8.139833 -6.585092
v -3.109696 -0.974684 -6.585092
v -3.109695 8.139833 4.499947
v -4.971515 8.217471 -8.995922
v -4.971514 8.217471 6.910777
v -4.971515 8.217471 -8.995922
v -4.971514 8.217471 6.910777
v -1.403333 10.756376 -4.375560
v -1.403332 10.756376 2.290415
v -0.390525 -0.974684 4.499947
v -0.390526 8.139833 -6.585093
v -1.069588 8.217471 -8.995922
v -1.069588 8.217471 -8.995922
v 0.231837 10.756376 -4.375560
v -0.390526 -0.974684 -6.585093
v -0.390525 8.139833 4.499947
v -1.069587 8.217471 6.910777
v -1.069587 8.217471 6.910777
v 0.231837 10.756376 2.290415
v -5.136781 4.685137 4.499947
v 7.478070 4.685137 -6.585093
v -5.136782 4.685137 -6.585092
v 7.478071 4.685137 4.499946
v -3.109695 4.685137 4.499947
v -0.390525 4.685137 4.499947
v -5.136781 -0.710559 4.499947
v -5.136782 -0.710559 -6.585092
v 7.478071 -0.710559 4.499946
v -3.109695 -0.710559 4.499947
v -0.390525 -0.710559 4.499947
v 7.478070 -0.710559 -6.585093
v -0.390525 4.685137 4.190989
v -3.109695 4.685137 4.190989
v -3.109695 -0.710559 4.190989
v -0.390525 -0.710559 4.190989
v -0.390526 4.685137 -0.462763
v -3.109695 4.685137 -0.462763
v -3.109695 -0.710559 -0.462763
v -0.390526 4.685137 -2.878924
v -3.109696 4.685137 -2.878924
v -3.109696 -0.710559 -2.878924
v -0.390526 -0.710559 -2.878924
v 2.952919 4.685137 4.190989
v 2.952919 -0.710559 4.190989
v 2.952918 4.685137 -0.462764
v 2.952918 4.685137 -2.878924
v 2.952918 -0.710559 -2.878924
v 4.414346 4.685137 4.190989
v 4.414346 -0.710559 4.190989
v 4.414345 4.685137 -0.462764
v 4.414345 -0.710559 -0.462764
v 4.414345 4.685137 -2.878924
v 4.414345 -0.710559 -2.878924
vn 0.0283 -0.9996 -0.0000
vn -1.0000 -0.0000 -0.0000
vn -0.0000 1.0000 -0.0000
vn -0.0283 -0.9996 -0.0000
vn 0.4348 0.9005 -0.0000
vn -0.4348 0.9005 -0.0000
vn -0.0000 0.8764 -0.4816
vn -0.0000 0.8764 0.4816
vn -0.0000 -0.0000 -1.0000
vn -0.0000 -0.0000 1.0000
vn -0.0000 -0.9995 0.0322
vn -0.0000 -0.9995 -0.0322
vn -0.0000 -1.0000 -0.0000
vn 1.0000 -0.0000 -0.0000
vt 0.625000 0.250000
vt 0.625000 0.000000
vt 0.375000 0.500000
vt 0.382245 0.500000
vt 0.530242 0.500000
vt 0.625000 0.500000
vt 0.625000 0.750000
vt 0.530242 0.750000
vt 0.382245 0.750000
vt 0.375000 0.750000
vt 0.625000 0.405939
vt 0.625000 0.405939
vt 0.625000 0.790173
vt 0.625000 0.790173
vt 0.625000 0.844061
vt 0.625000 1.000000
vt 0.625000 0.459827
vt 0.382245 0.405939
vt 0.530242 0.405939
vt 0.530242 1.000000
vt 0.382245 1.000000
vt 0.375000 1.000000
vt 0.375000 0.844061
vt 0.375000 0.790173
vt 0.625000 0.790173
vt 0.625000 0.459827
vt 0.530242 0.459827
vt 0.625000 0.405939
vt 0.382245 0.459827
vt 0.375000 0.459827
vt 0.375000 0.405939
vt 0.375000 0.250000
vt 0.382245 0.250000
vt 0.719061 0.500000
vt 0.875000 0.500000
vt 0.875000 0.750000
vt 0.719061 0.750000
vt 0.665173 0.750000
vt 0.665173 0.500000
vt 0.530242 0.000000
vt 0.530242 0.250000
vt 0.375000 0.000000
vt 0.382245 0.000000
vt 0.334827 0.500000
vt 0.334827 0.750000
vt 0.280939 0.750000
vt 0.125000 0.750000
vt 0.125000 0.500000
vt 0.280939 0.500000
s 0
f 5/1/1 7/2/1 10/2/1 12/1/1
f 2/3/2 47/4/2 41/5/2 1/6/2 3/7/2 43/8/2 48/9/2 4/10/2
f 38/11/3 12/1/3 16/1/3 39/12/3
f 3/7/4 1/6/4 11/6/4 9/7/4
f 16/1/5 14/2/5 18/2/5 20/1/5
f 9/7/3 11/6/3 15/6/3 13/7/3
f 12/1/3 10/2/3 14/2/3 16/1/3
f 25/13/3 9/7/3 13/7/3 27/13/3
f 13/7/6 15/6/6 19/6/6 17/7/6
f 27/13/7 13/7/7 17/7/7 29/14/7 35/15/7 18/16/7 14/16/7 34/15/7
f 39/12/8 16/1/8 20/1/8 40/12/8 30/17/8 19/6/8 15/6/8 28/17/8
f 33/15/3 25/13/3 27/13/3 34/15/3
f 11/6/3 26/17/3 28/17/3 15/6/3
f 56/18/9 53/19/9 64/19/9 69/19/9 70/18/9 65/18/9
f 32/15/9 7/16/9 42/20/9 52/21/9 8/22/9 36/23/9 23/24/9 4/10/9 48/9/9 43/8/9 3/7/9 22/25/9
f 24/26/10 1/6/10 41/5/10 45/27/10 46/19/10 37/28/10
f 37/28/11 5/1/11 12/1/11 38/11/11 26/17/11 11/6/11 1/6/11 24/26/11
f 10/16/3 33/15/3 34/15/3 14/16/3
f 22/25/12 3/7/12 9/7/12 25/13/12 33/15/12 10/16/12 7/16/12 32/15/12
f 26/17/3 38/11/3 39/12/3 28/17/3
f 46/19/13 45/27/13 54/27/13 53/19/13
f 50/29/10 45/27/10 41/5/10 47/4/10
f 50/29/10 47/4/10 2/3/10 21/30/10 31/31/10 6/32/10 49/33/10 51/18/10
f 40/34/3 20/35/3 18/36/3 35/37/3 29/38/3 17/7/3 19/6/3 30/39/3
f 42/40/14 7/2/14 5/1/14 44/41/14 49/33/14 6/32/14 8/42/14 52/43/14
f 51/18/2 46/19/2 53/19/2 56/18/2
f 50/29/3 51/18/3 56/18/3 55/29/3
f 53/19/13 54/27/13 58/27/13 57/19/13
f 57/19/13 58/27/13 61/27/13 60/19/13
f 55/29/3 56/18/3 65/18/3 70/18/3 72/18/3 74/18/3 68/18/3 63/18/3 62/29/3 59/29/3
f 71/19/2 73/19/2 74/18/2 72/18/2 70/18/2 69/19/2
f 60/19/10 61/27/10 62/29/10 63/18/10 68/18/10 74/18/10 73/19/10 67/19/10
f 53/19/13 57/19/13 66/19/13 64/19/13
f 21/44/13 2/3/13 4/10/13 23/45/13 36/46/13 8/47/13 6/48/13 31/49/13
f 57/19/13 60/19/13 67/19/13 66/19/13
f 45/27/14 50/29/14 55/29/14 59/29/14 62/29/14 61/27/14 58/27/14 54/27/14
f 66/19/13 67/19/13 73/19/13 71/19/13
f 64/19/13 66/19/13 71/19/13 69/19/13
f 44/41/10 5/1/10 37/28/10 46/19/10 51/18/10 49/33/10
